<?xml version="1.0" encoding="UTF-8" standalone="no"?>
<!DOCTYPE svg PUBLIC "-//W3C//DTD SVG 1.1//EN"
 "http://www.w3.org/Graphics/SVG/1.1/DTD/svg11.dtd">
<!-- Generated by graphviz version 2.43.0 (0)
 -->
<!-- Title: %3 Pages: 1 -->
<svg width="1364pt" height="476pt"
 viewBox="0.00 0.00 1363.50 476.00" xmlns="http://www.w3.org/2000/svg" xmlns:xlink="http://www.w3.org/1999/xlink">
<g id="graph0" class="graph" transform="scale(1 1) rotate(0) translate(4 472)">
<title>%3</title>
<polygon fill="white" stroke="transparent" points="-4,4 -4,-472 1359.5,-472 1359.5,4 -4,4"/>
<!-- [root] aws_cloudwatch_metric_alarm.my_cloudwatch (expand) -->
<g id="node1" class="node">
<title>[root] aws_cloudwatch_metric_alarm.my_cloudwatch (expand)</title>
<polygon fill="none" stroke="black" points="1013.5,-324 666.5,-324 666.5,-288 1013.5,-288 1013.5,-324"/>
<text text-anchor="middle" x="840" y="-302.3" font-family="Times,serif" font-size="14.00">aws_cloudwatch_metric_alarm.my_cloudwatch</text>
</g>
<!-- [root] aws_instance.my_server (expand) -->
<g id="node5" class="node">
<title>[root] aws_instance.my_server (expand)</title>
<polygon fill="none" stroke="black" points="935,-252 745,-252 745,-216 935,-216 935,-252"/>
<text text-anchor="middle" x="840" y="-230.3" font-family="Times,serif" font-size="14.00">aws_instance.my_server</text>
</g>
<!-- [root] aws_cloudwatch_metric_alarm.my_cloudwatch (expand)&#45;&gt;[root] aws_instance.my_server (expand) -->
<g id="edge1" class="edge">
<title>[root] aws_cloudwatch_metric_alarm.my_cloudwatch (expand)&#45;&gt;[root] aws_instance.my_server (expand)</title>
<path fill="none" stroke="black" d="M840,-287.7C840,-279.98 840,-270.71 840,-262.11"/>
<polygon fill="black" stroke="black" points="843.5,-262.1 840,-252.1 836.5,-262.1 843.5,-262.1"/>
</g>
<!-- [root] aws_db_instance.my_db (expand) -->
<g id="node2" class="node">
<title>[root] aws_db_instance.my_db (expand)</title>
<polygon fill="none" stroke="black" points="1355.5,-324 1168.5,-324 1168.5,-288 1355.5,-288 1355.5,-324"/>
<text text-anchor="middle" x="1262" y="-302.3" font-family="Times,serif" font-size="14.00">aws_db_instance.my_db</text>
</g>
<!-- [root] aws_db_subnet_group.my_db_subnet (expand) -->
<g id="node3" class="node">
<title>[root] aws_db_subnet_group.my_db_subnet (expand)</title>
<polygon fill="none" stroke="black" points="1233,-252 953,-252 953,-216 1233,-216 1233,-252"/>
<text text-anchor="middle" x="1093" y="-230.3" font-family="Times,serif" font-size="14.00">aws_db_subnet_group.my_db_subnet</text>
</g>
<!-- [root] aws_db_instance.my_db (expand)&#45;&gt;[root] aws_db_subnet_group.my_db_subnet (expand) -->
<g id="edge2" class="edge">
<title>[root] aws_db_instance.my_db (expand)&#45;&gt;[root] aws_db_subnet_group.my_db_subnet (expand)</title>
<path fill="none" stroke="black" d="M1220.66,-287.88C1197.45,-278.26 1168.31,-266.19 1143.73,-256.01"/>
<polygon fill="black" stroke="black" points="1144.79,-252.66 1134.21,-252.07 1142.11,-259.13 1144.79,-252.66"/>
</g>
<!-- [root] aws_subnet.my_subnet (expand) -->
<g id="node12" class="node">
<title>[root] aws_subnet.my_subnet (expand)</title>
<polygon fill="none" stroke="black" points="970,-180 788,-180 788,-144 970,-144 970,-180"/>
<text text-anchor="middle" x="879" y="-158.3" font-family="Times,serif" font-size="14.00">aws_subnet.my_subnet</text>
</g>
<!-- [root] aws_db_subnet_group.my_db_subnet (expand)&#45;&gt;[root] aws_subnet.my_subnet (expand) -->
<g id="edge3" class="edge">
<title>[root] aws_db_subnet_group.my_db_subnet (expand)&#45;&gt;[root] aws_subnet.my_subnet (expand)</title>
<path fill="none" stroke="black" d="M1040.92,-215.97C1010.76,-206.1 972.61,-193.62 940.92,-183.25"/>
<polygon fill="black" stroke="black" points="941.9,-179.89 931.31,-180.11 939.73,-186.55 941.9,-179.89"/>
</g>
<!-- [root] aws_subnet.my_subnet1 (expand) -->
<g id="node13" class="node">
<title>[root] aws_subnet.my_subnet1 (expand)</title>
<polygon fill="none" stroke="black" points="1185.5,-180 994.5,-180 994.5,-144 1185.5,-144 1185.5,-180"/>
<text text-anchor="middle" x="1090" y="-158.3" font-family="Times,serif" font-size="14.00">aws_subnet.my_subnet1</text>
</g>
<!-- [root] aws_db_subnet_group.my_db_subnet (expand)&#45;&gt;[root] aws_subnet.my_subnet1 (expand) -->
<g id="edge4" class="edge">
<title>[root] aws_db_subnet_group.my_db_subnet (expand)&#45;&gt;[root] aws_subnet.my_subnet1 (expand)</title>
<path fill="none" stroke="black" d="M1092.26,-215.7C1091.93,-207.98 1091.53,-198.71 1091.16,-190.11"/>
<polygon fill="black" stroke="black" points="1094.66,-189.95 1090.73,-180.1 1087.66,-190.25 1094.66,-189.95"/>
</g>
<!-- [root] aws_eip.my_ip (expand) -->
<g id="node4" class="node">
<title>[root] aws_eip.my_ip (expand)</title>
<polygon fill="none" stroke="black" points="1150.5,-324 1031.5,-324 1031.5,-288 1150.5,-288 1150.5,-324"/>
<text text-anchor="middle" x="1091" y="-302.3" font-family="Times,serif" font-size="14.00">aws_eip.my_ip</text>
</g>
<!-- [root] aws_eip.my_ip (expand)&#45;&gt;[root] aws_instance.my_server (expand) -->
<g id="edge5" class="edge">
<title>[root] aws_eip.my_ip (expand)&#45;&gt;[root] aws_instance.my_server (expand)</title>
<path fill="none" stroke="black" d="M1031.2,-288.32C995.13,-278.26 948.97,-265.39 911.04,-254.81"/>
<polygon fill="black" stroke="black" points="911.66,-251.35 901.09,-252.04 909.78,-258.09 911.66,-251.35"/>
</g>
<!-- [root] aws_security_group.my_secure (expand) -->
<g id="node11" class="node">
<title>[root] aws_security_group.my_secure (expand)</title>
<polygon fill="none" stroke="black" points="770,-180 532,-180 532,-144 770,-144 770,-180"/>
<text text-anchor="middle" x="651" y="-158.3" font-family="Times,serif" font-size="14.00">aws_security_group.my_secure</text>
</g>
<!-- [root] aws_instance.my_server (expand)&#45;&gt;[root] aws_security_group.my_secure (expand) -->
<g id="edge6" class="edge">
<title>[root] aws_instance.my_server (expand)&#45;&gt;[root] aws_security_group.my_secure (expand)</title>
<path fill="none" stroke="black" d="M793.77,-215.88C767.47,-206.14 734.36,-193.87 706.64,-183.61"/>
<polygon fill="black" stroke="black" points="707.68,-180.26 697.08,-180.07 705.25,-186.82 707.68,-180.26"/>
</g>
<!-- [root] aws_instance.my_server (expand)&#45;&gt;[root] aws_subnet.my_subnet (expand) -->
<g id="edge7" class="edge">
<title>[root] aws_instance.my_server (expand)&#45;&gt;[root] aws_subnet.my_subnet (expand)</title>
<path fill="none" stroke="black" d="M849.64,-215.7C854.13,-207.64 859.56,-197.89 864.52,-188.98"/>
<polygon fill="black" stroke="black" points="867.66,-190.54 869.47,-180.1 861.55,-187.14 867.66,-190.54"/>
</g>
<!-- [root] aws_internet_gateway.my_gateway (expand) -->
<g id="node6" class="node">
<title>[root] aws_internet_gateway.my_gateway (expand)</title>
<polygon fill="none" stroke="black" points="514,-180 248,-180 248,-144 514,-144 514,-180"/>
<text text-anchor="middle" x="381" y="-158.3" font-family="Times,serif" font-size="14.00">aws_internet_gateway.my_gateway</text>
</g>
<!-- [root] aws_vpc.my_vpc (expand) -->
<g id="node14" class="node">
<title>[root] aws_vpc.my_vpc (expand)</title>
<polygon fill="none" stroke="black" points="718,-108 584,-108 584,-72 718,-72 718,-108"/>
<text text-anchor="middle" x="651" y="-86.3" font-family="Times,serif" font-size="14.00">aws_vpc.my_vpc</text>
</g>
<!-- [root] aws_internet_gateway.my_gateway (expand)&#45;&gt;[root] aws_vpc.my_vpc (expand) -->
<g id="edge8" class="edge">
<title>[root] aws_internet_gateway.my_gateway (expand)&#45;&gt;[root] aws_vpc.my_vpc (expand)</title>
<path fill="none" stroke="black" d="M446.7,-143.97C485.5,-133.91 534.76,-121.14 575.19,-110.65"/>
<polygon fill="black" stroke="black" points="576.2,-114.01 585,-108.11 574.44,-107.23 576.2,-114.01"/>
</g>
<!-- [root] aws_network_acl.my_network (expand) -->
<g id="node7" class="node">
<title>[root] aws_network_acl.my_network (expand)</title>
<polygon fill="none" stroke="black" points="228,-252 0,-252 0,-216 228,-216 228,-252"/>
<text text-anchor="middle" x="114" y="-230.3" font-family="Times,serif" font-size="14.00">aws_network_acl.my_network</text>
</g>
<!-- [root] aws_network_acl.my_network (expand)&#45;&gt;[root] aws_vpc.my_vpc (expand) -->
<g id="edge9" class="edge">
<title>[root] aws_network_acl.my_network (expand)&#45;&gt;[root] aws_vpc.my_vpc (expand)</title>
<path fill="none" stroke="black" d="M131.76,-215.94C154.57,-195.14 196.34,-160.71 239,-144 298.24,-120.8 471.53,-104.4 573.52,-96.45"/>
<polygon fill="black" stroke="black" points="574.07,-99.92 583.77,-95.66 573.53,-92.94 574.07,-99.92"/>
</g>
<!-- [root] aws_route.my_route (expand) -->
<g id="node8" class="node">
<title>[root] aws_route.my_route (expand)</title>
<polygon fill="none" stroke="black" points="299.5,-324 138.5,-324 138.5,-288 299.5,-288 299.5,-324"/>
<text text-anchor="middle" x="219" y="-302.3" font-family="Times,serif" font-size="14.00">aws_route.my_route</text>
</g>
<!-- [root] aws_route_table.my_route_table (expand) -->
<g id="node9" class="node">
<title>[root] aws_route_table.my_route_table (expand)</title>
<polygon fill="none" stroke="black" points="504,-252 258,-252 258,-216 504,-216 504,-252"/>
<text text-anchor="middle" x="381" y="-230.3" font-family="Times,serif" font-size="14.00">aws_route_table.my_route_table</text>
</g>
<!-- [root] aws_route.my_route (expand)&#45;&gt;[root] aws_route_table.my_route_table (expand) -->
<g id="edge10" class="edge">
<title>[root] aws_route.my_route (expand)&#45;&gt;[root] aws_route_table.my_route_table (expand)</title>
<path fill="none" stroke="black" d="M258.63,-287.88C280.78,-278.31 308.56,-266.3 332.06,-256.15"/>
<polygon fill="black" stroke="black" points="333.71,-259.25 341.5,-252.07 330.93,-252.82 333.71,-259.25"/>
</g>
<!-- [root] aws_route_table.my_route_table (expand)&#45;&gt;[root] aws_internet_gateway.my_gateway (expand) -->
<g id="edge11" class="edge">
<title>[root] aws_route_table.my_route_table (expand)&#45;&gt;[root] aws_internet_gateway.my_gateway (expand)</title>
<path fill="none" stroke="black" d="M381,-215.7C381,-207.98 381,-198.71 381,-190.11"/>
<polygon fill="black" stroke="black" points="384.5,-190.1 381,-180.1 377.5,-190.1 384.5,-190.1"/>
</g>
<!-- [root] aws_route_table_association.my_association (expand) -->
<g id="node10" class="node">
<title>[root] aws_route_table_association.my_association (expand)</title>
<polygon fill="none" stroke="black" points="648.5,-324 317.5,-324 317.5,-288 648.5,-288 648.5,-324"/>
<text text-anchor="middle" x="483" y="-302.3" font-family="Times,serif" font-size="14.00">aws_route_table_association.my_association</text>
</g>
<!-- [root] aws_route_table_association.my_association (expand)&#45;&gt;[root] aws_route_table.my_route_table (expand) -->
<g id="edge12" class="edge">
<title>[root] aws_route_table_association.my_association (expand)&#45;&gt;[root] aws_route_table.my_route_table (expand)</title>
<path fill="none" stroke="black" d="M458.05,-287.88C444.96,-278.89 428.74,-267.76 414.56,-258.03"/>
<polygon fill="black" stroke="black" points="416.27,-254.96 406.05,-252.19 412.31,-260.73 416.27,-254.96"/>
</g>
<!-- [root] aws_route_table_association.my_association (expand)&#45;&gt;[root] aws_subnet.my_subnet (expand) -->
<g id="edge13" class="edge">
<title>[root] aws_route_table_association.my_association (expand)&#45;&gt;[root] aws_subnet.my_subnet (expand)</title>
<path fill="none" stroke="black" d="M530.77,-287.87C603.86,-261.66 743.2,-211.69 821.65,-183.56"/>
<polygon fill="black" stroke="black" points="823.14,-186.75 831.37,-180.08 820.78,-180.16 823.14,-186.75"/>
</g>
<!-- [root] aws_security_group.my_secure (expand)&#45;&gt;[root] aws_vpc.my_vpc (expand) -->
<g id="edge14" class="edge">
<title>[root] aws_security_group.my_secure (expand)&#45;&gt;[root] aws_vpc.my_vpc (expand)</title>
<path fill="none" stroke="black" d="M651,-143.7C651,-135.98 651,-126.71 651,-118.11"/>
<polygon fill="black" stroke="black" points="654.5,-118.1 651,-108.1 647.5,-118.1 654.5,-118.1"/>
</g>
<!-- [root] aws_subnet.my_subnet (expand)&#45;&gt;[root] aws_vpc.my_vpc (expand) -->
<g id="edge15" class="edge">
<title>[root] aws_subnet.my_subnet (expand)&#45;&gt;[root] aws_vpc.my_vpc (expand)</title>
<path fill="none" stroke="black" d="M823.52,-143.97C791.24,-134.06 750.39,-121.51 716.54,-111.12"/>
<polygon fill="black" stroke="black" points="717.32,-107.7 706.73,-108.11 715.26,-114.39 717.32,-107.7"/>
</g>
<!-- [root] aws_subnet.my_subnet1 (expand)&#45;&gt;[root] aws_vpc.my_vpc (expand) -->
<g id="edge16" class="edge">
<title>[root] aws_subnet.my_subnet1 (expand)&#45;&gt;[root] aws_vpc.my_vpc (expand)</title>
<path fill="none" stroke="black" d="M994.47,-145.77C914.73,-133.05 802.52,-115.16 728.33,-103.33"/>
<polygon fill="black" stroke="black" points="728.55,-99.82 718.12,-101.7 727.45,-106.73 728.55,-99.82"/>
</g>
<!-- [root] provider[&quot;registry.terraform.io/hashicorp/aws&quot;] -->
<g id="node16" class="node">
<title>[root] provider[&quot;registry.terraform.io/hashicorp/aws&quot;]</title>
<polygon fill="none" stroke="black" points="651,-36 325.74,-18 651,0 976.26,-18 651,-36"/>
<text text-anchor="middle" x="651" y="-14.3" font-family="Times,serif" font-size="14.00">provider[&quot;registry.terraform.io/hashicorp/aws&quot;]</text>
</g>
<!-- [root] aws_vpc.my_vpc (expand)&#45;&gt;[root] provider[&quot;registry.terraform.io/hashicorp/aws&quot;] -->
<g id="edge17" class="edge">
<title>[root] aws_vpc.my_vpc (expand)&#45;&gt;[root] provider[&quot;registry.terraform.io/hashicorp/aws&quot;]</title>
<path fill="none" stroke="black" d="M651,-71.7C651,-63.98 651,-54.71 651,-46.11"/>
<polygon fill="black" stroke="black" points="654.5,-46.1 651,-36.1 647.5,-46.1 654.5,-46.1"/>
</g>
<!-- [root] output.endpoit_data -->
<g id="node15" class="node">
<title>[root] output.endpoit_data</title>
<polygon fill="none" stroke="black" points="1320.5,-396 1165.5,-396 1165.5,-360 1326.5,-360 1326.5,-390 1320.5,-396"/>
<polyline fill="none" stroke="black" points="1320.5,-396 1320.5,-390 "/>
<polyline fill="none" stroke="black" points="1326.5,-390 1320.5,-390 "/>
<text text-anchor="middle" x="1246" y="-374.3" font-family="Times,serif" font-size="14.00">output.endpoit_data</text>
</g>
<!-- [root] output.endpoit_data&#45;&gt;[root] aws_db_instance.my_db (expand) -->
<g id="edge18" class="edge">
<title>[root] output.endpoit_data&#45;&gt;[root] aws_db_instance.my_db (expand)</title>
<path fill="none" stroke="black" d="M1249.96,-359.7C1251.72,-351.98 1253.84,-342.71 1255.8,-334.11"/>
<polygon fill="black" stroke="black" points="1259.27,-334.63 1258.09,-324.1 1252.45,-333.07 1259.27,-334.63"/>
</g>
<!-- [root] provider[&quot;registry.terraform.io/hashicorp/aws&quot;] (close) -->
<g id="node17" class="node">
<title>[root] provider[&quot;registry.terraform.io/hashicorp/aws&quot;] (close)</title>
<ellipse fill="none" stroke="black" cx="840" cy="-378" rx="291.65" ry="18"/>
<text text-anchor="middle" x="840" y="-374.3" font-family="Times,serif" font-size="14.00">[root] provider[&quot;registry.terraform.io/hashicorp/aws&quot;] (close)</text>
</g>
<!-- [root] provider[&quot;registry.terraform.io/hashicorp/aws&quot;] (close)&#45;&gt;[root] aws_cloudwatch_metric_alarm.my_cloudwatch (expand) -->
<g id="edge19" class="edge">
<title>[root] provider[&quot;registry.terraform.io/hashicorp/aws&quot;] (close)&#45;&gt;[root] aws_cloudwatch_metric_alarm.my_cloudwatch (expand)</title>
<path fill="none" stroke="black" d="M840,-359.7C840,-351.98 840,-342.71 840,-334.11"/>
<polygon fill="black" stroke="black" points="843.5,-334.1 840,-324.1 836.5,-334.1 843.5,-334.1"/>
</g>
<!-- [root] provider[&quot;registry.terraform.io/hashicorp/aws&quot;] (close)&#45;&gt;[root] aws_db_instance.my_db (expand) -->
<g id="edge20" class="edge">
<title>[root] provider[&quot;registry.terraform.io/hashicorp/aws&quot;] (close)&#45;&gt;[root] aws_db_instance.my_db (expand)</title>
<path fill="none" stroke="black" d="M936.98,-360.96C997.83,-350.9 1078.23,-337.58 1158.1,-324.31"/>
<polygon fill="black" stroke="black" points="1159.05,-327.7 1168.34,-322.61 1157.91,-320.8 1159.05,-327.7"/>
</g>
<!-- [root] provider[&quot;registry.terraform.io/hashicorp/aws&quot;] (close)&#45;&gt;[root] aws_eip.my_ip (expand) -->
<g id="edge21" class="edge">
<title>[root] provider[&quot;registry.terraform.io/hashicorp/aws&quot;] (close)&#45;&gt;[root] aws_eip.my_ip (expand)</title>
<path fill="none" stroke="black" d="M899.8,-360.32C936.27,-350.15 983.05,-337.1 1021.21,-326.46"/>
<polygon fill="black" stroke="black" points="1022.53,-329.73 1031.22,-323.67 1020.65,-322.99 1022.53,-329.73"/>
</g>
<!-- [root] provider[&quot;registry.terraform.io/hashicorp/aws&quot;] (close)&#45;&gt;[root] aws_network_acl.my_network (expand) -->
<g id="edge22" class="edge">
<title>[root] provider[&quot;registry.terraform.io/hashicorp/aws&quot;] (close)&#45;&gt;[root] aws_network_acl.my_network (expand)</title>
<path fill="none" stroke="black" d="M561.91,-372.44C376.68,-366.67 161.48,-353.6 129,-324 112.31,-308.79 109.66,-282.5 110.53,-262.43"/>
<polygon fill="black" stroke="black" points="114.03,-262.54 111.28,-252.31 107.05,-262.02 114.03,-262.54"/>
</g>
<!-- [root] provider[&quot;registry.terraform.io/hashicorp/aws&quot;] (close)&#45;&gt;[root] aws_route.my_route (expand) -->
<g id="edge23" class="edge">
<title>[root] provider[&quot;registry.terraform.io/hashicorp/aws&quot;] (close)&#45;&gt;[root] aws_route.my_route (expand)</title>
<path fill="none" stroke="black" d="M665.21,-363.55C563.92,-354.8 433.79,-341.92 310,-324.23"/>
<polygon fill="black" stroke="black" points="310.35,-320.74 299.95,-322.78 309.35,-327.67 310.35,-320.74"/>
</g>
<!-- [root] provider[&quot;registry.terraform.io/hashicorp/aws&quot;] (close)&#45;&gt;[root] aws_route_table_association.my_association (expand) -->
<g id="edge24" class="edge">
<title>[root] provider[&quot;registry.terraform.io/hashicorp/aws&quot;] (close)&#45;&gt;[root] aws_route_table_association.my_association (expand)</title>
<path fill="none" stroke="black" d="M756.75,-360.68C703.79,-350.29 635,-336.8 579.63,-325.95"/>
<polygon fill="black" stroke="black" points="580.29,-322.51 569.8,-324.02 578.94,-329.38 580.29,-322.51"/>
</g>
<!-- [root] root -->
<g id="node18" class="node">
<title>[root] root</title>
<ellipse fill="none" stroke="black" cx="1035" cy="-450" rx="58.49" ry="18"/>
<text text-anchor="middle" x="1035" y="-446.3" font-family="Times,serif" font-size="14.00">[root] root</text>
</g>
<!-- [root] root&#45;&gt;[root] output.endpoit_data -->
<g id="edge25" class="edge">
<title>[root] root&#45;&gt;[root] output.endpoit_data</title>
<path fill="none" stroke="black" d="M1073.21,-436.32C1104.26,-426.02 1148.65,-411.3 1184.66,-399.35"/>
<polygon fill="black" stroke="black" points="1186.19,-402.53 1194.58,-396.06 1183.98,-395.89 1186.19,-402.53"/>
</g>
<!-- [root] root&#45;&gt;[root] provider[&quot;registry.terraform.io/hashicorp/aws&quot;] (close) -->
<g id="edge26" class="edge">
<title>[root] root&#45;&gt;[root] provider[&quot;registry.terraform.io/hashicorp/aws&quot;] (close)</title>
<path fill="none" stroke="black" d="M998.32,-435.83C969.6,-425.52 929.16,-411.01 896.34,-399.23"/>
<polygon fill="black" stroke="black" points="897.46,-395.91 886.87,-395.82 895.1,-402.5 897.46,-395.91"/>
</g>
</g>
</svg>
